<svg width="397" height="659" viewBox="0 0 397 659" fill="none" xmlns="http://www.w3.org/2000/svg">
<g id="hot-air-baloon">
<path id="Vector" d="M396.091 198C396.091 384 201.091 473 201.091 473C201.091 473 4.09089 384 0.0908883 198C-2.26023 88.6729 88.7385 0 198.091 0C307.443 0 396.091 88.6477 396.091 198Z" fill="#6C63FF"/>
<path id="Vector_2" d="M267.091 484H135.091L119.091 420H283.091L267.091 484Z" fill="#3F3D56"/>
<path id="Vector_3" d="M263.591 658.549H138.591V592.451H263.591V658.549ZM140.591 656.549H261.591V594.451H140.591V656.549Z" fill="#3F3D56"/>
<path id="Vector_4" d="M226.304 491.547H175.878L170.091 482.453H232.091L226.304 491.547Z" fill="#3F3D56"/>
<path id="Vector_5" d="M138.091 484H136.091V582H138.091V484Z" fill="#3F3D56"/>
<path id="Vector_6" d="M266.091 484H264.091V582H266.091V484Z" fill="#3F3D56"/>
<path id="Vector_7" d="M221.138 418.916L219.917 417.332C277.695 372.776 346.57 296.444 346.57 185.829C346.616 147.087 335.222 109.194 313.818 76.9022C292.413 44.6103 261.951 19.3571 226.251 4.30956L227.03 2.46777C263.092 17.668 293.864 43.1774 315.485 75.797C337.107 108.416 348.616 146.694 348.57 185.829C348.57 297.256 279.272 374.085 221.138 418.916Z" fill="#3F3D56"/>
<path id="Vector_8" d="M157.138 418.917L155.916 417.333C213.695 372.776 282.57 296.444 282.57 185.829C282.585 147.347 271.328 109.705 250.189 77.5498C229.05 45.3949 198.955 20.1367 163.621 4.89505L164.414 3.05911C200.106 18.4554 230.507 43.97 251.861 76.4511C273.214 108.932 284.585 146.957 284.57 185.829C284.57 297.257 215.272 374.086 157.138 418.917Z" fill="#3F3D56"/>
<path id="Vector_9" d="M239.044 418.916C180.91 374.086 111.612 297.257 111.612 185.829C111.596 146.957 122.968 108.932 144.322 76.4504C165.676 43.9691 196.077 18.4547 231.77 3.05865L232.563 4.89458C197.228 20.136 167.133 45.3942 145.993 77.5491C124.854 109.704 113.596 147.347 113.612 185.829C113.612 296.444 182.486 372.776 240.265 417.332L239.044 418.916Z" fill="#3F3D56"/>
<path id="Vector_10" d="M175.044 418.916C116.91 374.086 47.6122 297.257 47.6122 185.829C47.5469 146.54 59.1371 108.114 80.9164 75.4142C102.696 42.7142 133.685 17.2092 169.964 2.12653L170.735 3.97222C134.821 18.9033 104.142 44.152 82.5819 76.5234C61.0213 108.895 49.5475 146.934 49.6122 185.829C49.6122 296.445 118.487 372.776 176.265 417.332L175.044 418.916Z" fill="#3F3D56"/>
<path id="Vector_11" d="M199.091 0H197.091V420H199.091V0Z" fill="#3F3D56"/>
<path id="Vector_12" d="M175.558 578.918L138.884 615.592L140.298 617.006L176.972 580.332L175.558 578.918Z" fill="#3F3D56"/>
<path id="Vector_13" d="M193.386 578.308L138.87 635.645L140.319 637.023L194.836 579.686L193.386 578.308Z" fill="#3F3D56"/>
<path id="Vector_14" d="M274.091 579H124.091V597H274.091V579Z" fill="white"/>
<path id="Vector_15" d="M275.091 598H123.091V578H275.091V598ZM125.091 596H273.091V580H125.091V596Z" fill="#3F3D56"/>
</g>
</svg>
