<svg width="1014" height="503" viewBox="0 0 1014 503" fill="none" xmlns="http://www.w3.org/2000/svg">
<g id="moon-light" clip-path="url(#clip0)">
<g id="sky">
<path id="Vector_19" d="M480.788 57.5439C483.549 57.5439 485.788 55.3054 485.788 52.5439C485.788 49.7825 483.549 47.5439 480.788 47.5439C478.026 47.5439 475.788 49.7825 475.788 52.5439C475.788 55.3054 478.026 57.5439 480.788 57.5439Z" fill="#F2F2F2"/>
<path id="Vector_20" d="M323.788 219.544C324.892 219.544 325.788 218.649 325.788 217.544C325.788 216.439 324.892 215.544 323.788 215.544C322.683 215.544 321.788 216.439 321.788 217.544C321.788 218.649 322.683 219.544 323.788 219.544Z" fill="#F2F2F2"/>
<path id="Vector_21" d="M618.788 313.544C619.892 313.544 620.788 312.649 620.788 311.544C620.788 310.439 619.892 309.544 618.788 309.544C617.683 309.544 616.788 310.439 616.788 311.544C616.788 312.649 617.683 313.544 618.788 313.544Z" fill="#F2F2F2"/>
<path id="Vector_22" d="M97.7875 288.544C98.8921 288.544 99.7875 287.649 99.7875 286.544C99.7875 285.439 98.8921 284.544 97.7875 284.544C96.683 284.544 95.7875 285.439 95.7875 286.544C95.7875 287.649 96.683 288.544 97.7875 288.544Z" fill="#F2F2F2"/>
<path id="Vector_23" d="M877.788 217.544C878.892 217.544 879.788 216.649 879.788 215.544C879.788 214.439 878.892 213.544 877.788 213.544C876.683 213.544 875.788 214.439 875.788 215.544C875.788 216.649 876.683 217.544 877.788 217.544Z" fill="#F2F2F2"/>
<path id="Vector_24" d="M235.788 238.544C236.892 238.544 237.788 237.649 237.788 236.544C237.788 235.439 236.892 234.544 235.788 234.544C234.683 234.544 233.788 235.439 233.788 236.544C233.788 237.649 234.683 238.544 235.788 238.544Z" fill="#F2F2F2"/>
<path id="Vector_25" d="M563.788 198.544C564.892 198.544 565.788 197.649 565.788 196.544C565.788 195.439 564.892 194.544 563.788 194.544C562.683 194.544 561.788 195.439 561.788 196.544C561.788 197.649 562.683 198.544 563.788 198.544Z" fill="#F2F2F2"/>
<path id="Vector_26" d="M629.788 54.5439C630.892 54.5439 631.788 53.6485 631.788 52.5439C631.788 51.4394 630.892 50.5439 629.788 50.5439C628.683 50.5439 627.788 51.4394 627.788 52.5439C627.788 53.6485 628.683 54.5439 629.788 54.5439Z" fill="#F2F2F2"/>
<path id="Vector_27" d="M213.788 288.544H211.788V289.544H213.788V288.544Z" fill="#F2F2F2"/>
<path id="Vector_28" d="M272.788 135.544H270.788V136.544H272.788V135.544Z" fill="#F2F2F2"/>
<path id="Vector_29" d="M416.788 249.544H414.788V250.544H416.788V249.544Z" fill="#F2F2F2"/>
<path id="Vector_30" d="M798.788 293.544H796.788V294.544H798.788V293.544Z" fill="#F2F2F2"/>
<path id="Vector_31" d="M679.788 140.544H677.788V141.544H679.788V140.544Z" fill="#F2F2F2"/>
<path id="Vector_32" d="M896.669 494.549C896.719 494.594 896.767 494.641 896.818 494.685C896.781 494.631 896.74 494.58 896.707 494.524L896.669 494.549Z" fill="#FF6584"/>
<path id="Vector_34" d="M334.788 119.544C349.699 119.544 361.788 107.456 361.788 92.5439C361.788 77.6323 349.699 65.5439 334.788 65.5439C319.876 65.5439 307.788 77.6323 307.788 92.5439C307.788 107.456 319.876 119.544 334.788 119.544Z" fill="#F2F2F2"/>
</g>
</g>
<defs>
<clipPath id="clip0">
<rect width="1013.95" height="503" fill="white"/>
</clipPath>
</defs>
</svg>
