<svg width="551" height="739" viewBox="0 0 551 739" fill="none" xmlns="http://www.w3.org/2000/svg">
<path d="M316.859 250.308C356.559 250.308 388.742 218.125 388.742 178.425C388.742 138.725 356.559 106.542 316.859 106.542C277.159 106.542 244.976 138.725 244.976 178.425C244.976 218.125 277.159 250.308 316.859 250.308Z" fill="#F2F2F2"/>
<path d="M96.0751 38.7663C99.478 38.7663 102.237 36.0077 102.237 32.6049C102.237 29.202 99.478 26.4435 96.0751 26.4435C92.6723 26.4435 89.9137 29.202 89.9137 32.6049C89.9137 36.0077 92.6723 38.7663 96.0751 38.7663Z" fill="#FF6584"/>
<path d="M296.321 451.581C299.724 451.581 302.482 448.822 302.482 445.419C302.482 442.017 299.724 439.258 296.321 439.258C292.918 439.258 290.16 442.017 290.16 445.419C290.16 448.822 292.918 451.581 296.321 451.581Z" fill="#FF6584"/>
<path d="M316.859 38.7663C320.262 38.7663 323.02 36.0077 323.02 32.6049C323.02 29.202 320.262 26.4435 316.859 26.4435C313.456 26.4435 310.698 29.202 310.698 32.6049C310.698 36.0077 313.456 38.7663 316.859 38.7663Z" fill="#F2F2F2"/>
<path d="M403.119 335.541C406.522 335.541 409.28 332.782 409.28 329.38C409.28 325.977 406.522 323.218 403.119 323.218C399.716 323.218 396.957 325.977 396.957 329.38C396.957 332.782 399.716 335.541 403.119 335.541Z" fill="#F2F2F2"/>
<path d="M157.689 205.124C161.092 205.124 163.851 202.366 163.851 198.963C163.851 195.56 161.092 192.802 157.689 192.802C154.286 192.802 151.528 195.56 151.528 198.963C151.528 202.366 154.286 205.124 157.689 205.124Z" fill="#F2F2F2"/>
<path d="M-51.7988 623.073C63.8982 623.073 157.689 529.282 157.689 413.585C157.689 297.888 63.8982 204.097 -51.7988 204.097C-167.496 204.097 -261.287 297.888 -261.287 413.585C-261.287 529.282 -167.496 623.073 -51.7988 623.073Z" fill="#6C63FF"/>
<path opacity="0.2" d="M310.606 148.443C314.525 148.443 317.703 145.266 317.703 141.346C317.703 137.427 314.525 134.25 310.606 134.25C306.687 134.25 303.509 137.427 303.509 141.346C303.509 145.266 306.687 148.443 310.606 148.443Z" fill="black"/>
<path opacity="0.2" d="M9.7236 289.129C13.643 289.129 16.8202 285.951 16.8202 282.032C16.8202 278.113 13.643 274.935 9.7236 274.935C5.80424 274.935 2.62695 278.113 2.62695 282.032C2.62695 285.951 5.80424 289.129 9.7236 289.129Z" fill="black"/>
<path opacity="0.2" d="M293.332 205.143C297.251 205.143 300.429 201.965 300.429 198.046C300.429 194.127 297.251 190.949 293.332 190.949C289.413 190.949 286.235 194.127 286.235 198.046C286.235 201.965 289.413 205.143 293.332 205.143Z" fill="black"/>
<path opacity="0.2" d="M102.328 379.716C106.248 379.716 109.425 376.539 109.425 372.619C109.425 368.7 106.248 365.523 102.328 365.523C98.4088 365.523 95.2316 368.7 95.2316 372.619C95.2316 376.539 98.4088 379.716 102.328 379.716Z" fill="black"/>
<path opacity="0.2" d="M356.927 201.604C362.588 201.604 367.177 197.014 367.177 191.353C367.177 185.692 362.588 181.102 356.927 181.102C351.265 181.102 346.676 185.692 346.676 191.353C346.676 197.014 351.265 201.604 356.927 201.604Z" fill="black"/>
<path opacity="0.2" d="M43.7214 455.248C49.3827 455.248 53.972 450.659 53.972 444.998C53.972 439.336 49.3827 434.747 43.7214 434.747C38.0601 434.747 33.4707 439.336 33.4707 444.998C33.4707 450.659 38.0601 455.248 43.7214 455.248Z" fill="black"/>
<path d="M-6.41052 534.338C-28.4411 534.308 -50.4525 533.036 -72.3398 530.528C-138.171 523.052 -198.885 505.386 -243.299 480.785C-288.256 455.883 -311.26 426.725 -308.076 398.681C-305.87 379.252 -287.091 361.862 -250.666 345.519C-250.169 345.297 -249.605 345.282 -249.096 345.476C-248.588 345.67 -248.177 346.058 -247.954 346.554C-247.732 347.051 -247.715 347.615 -247.908 348.124C-248.101 348.633 -248.488 349.044 -248.984 349.268C-283.972 364.965 -301.966 381.28 -303.994 399.145C-306.98 425.43 -284.717 453.147 -241.308 477.192C-197.356 501.538 -137.184 519.029 -71.8765 526.446C-6.56847 533.863 55.9929 530.309 104.285 516.44C151.981 502.741 179.892 480.722 182.876 454.437C184.896 436.655 175.101 417.8 154.551 399.911C154.141 399.553 153.889 399.047 153.851 398.503C153.813 397.96 153.993 397.424 154.351 397.013C154.709 396.602 155.215 396.35 155.758 396.312C156.302 396.275 156.838 396.454 157.249 396.812C178.864 415.629 189.137 435.716 186.958 454.9C183.773 482.943 154.816 506.201 105.42 520.387C73.2581 529.624 34.8706 534.338 -6.41052 534.338Z" fill="white"/>
<path opacity="0.1" d="M450.424 324.465L456.246 328.832L459.157 308.454L450.424 324.465Z" fill="black"/>
<path opacity="0.1" d="M315.058 379.776C315.058 379.776 357.811 368.145 377.918 342.666C377.918 342.666 357.269 376.865 315.058 379.776Z" fill="black"/>
</svg>
